<svg width="141.4" height="51" xmlns="http://www.w3.org/2000/svg">
    <style type="text/css">.st0{fill:#FFFFFF;fill-opacity:0.9253;}
        .st1{opacity:0.7;fill:#FFFFFF;}
        .st2{opacity:0.5;fill:#FFFFFF;}
        .st3{fill:#FFFFFF;}</style>

    <title>Kibana-Full-Logo</title>
    <g>
        <title>background</title>
        <rect fill="none" id="canvas_background" height="402" width="582" y="-1" x="-1"/>
    </g>
    <g>
        <title>Layer 1</title>
        <g id="text4159">
            <path d="m53.3,36.99024l0,-6.7l2.1,-0.2l4,7l4.1,0l-5,-8.8l4.8,-7.7l-4,0l-3.9,6.4l-2,0.2l0,-13.6l-3.6,0l0,23.4c-0.1,0 3.5,0 3.5,0z" class="st0" id="path4891"/>
            <path d="m66.3,36.99024l3.6,0l0,-16.5l-3.6,0c0,0 0,16.5 0,16.5zm0,-19.3l3.6,0l0,-3.8l-3.6,0l0,3.8z" class="st0" id="path4893"/>
            <path d="m82,20.19024c-1.9,0 -4.1,1 -4.1,1l0,-7.5l-3.6,0l0,23.4c0,0 4.3,0.4 6,0.4c5.9,0 8.1,-2 8.1,-8.9c0,-6.2 -1.9,-8.4 -6.4,-8.4zm-1.7,14c-0.7,0 -2.5,-0.1 -2.5,-0.1l0,-10c0,0 1.9,-0.7 3.7,-0.7c2.2,0 3.2,1.5 3.2,5.2c0,4 -0.7,5.6 -4.4,5.6z" class="st0" id="path4895"/>
            <path d="m104.2,25.59024c0,-3.8 -1.7,-5.5 -5.7,-5.5c-3,0 -6.6,0.9 -6.6,0.9l0.1,2.5c0,0 4,-0.3 6.2,-0.3c1.6,0 2.4,0.6 2.4,2.4l0,1.2l-4.3,0.4c-3.5,0.3 -5.5,1.5 -5.5,5c0,3.4 1.7,5.3 4.9,5.3c2.7,0 5.3,-1.2 5.3,-1.2c1.2,1 2.4,1.2 4.4,1.2l0.1,-2.7c-1,-0.1 -1.4,-0.5 -1.5,-1.5l0.2,-7.7l0,0zm-3.6,3.7l0,4.4c0,0 -2.2,0.7 -4.1,0.7c-1.4,0 -2,-0.9 -2,-2.4s0.8,-2.2 2.3,-2.3l3.8,-0.4z" class="st0" id="path4897"/>
            <path d="m112.3,36.99024l0,-12.8c0,0 1.8,-0.9 3.7,-0.9c2.5,0 2.9,1.6 2.9,4.9l0,8.8l3.6,0l0,-8.9c0,-5.4 -1.1,-8 -5.7,-8c-2.1,0 -4.6,1.4 -4.6,1.4l0,-1l-3.6,0l0,16.5c0.1,0 3.7,0 3.7,0z" class="st0" id="path4899"/>
            <path d="m138.9,25.59024c0,-3.8 -1.7,-5.5 -5.7,-5.5c-3,0 -6.6,0.9 -6.6,0.9l0.1,2.5c0,0 4,-0.3 6.2,-0.3c1.6,0 2.4,0.6 2.4,2.4l0,1.2l-4.3,0.4c-3.5,0.3 -5.5,1.5 -5.5,5c0,3.4 1.7,5.3 4.9,5.3c2.7,0 5.3,-1.2 5.3,-1.2c1.2,1 2.4,1.2 4.4,1.2l0.1,-2.7c-1,-0.1 -1.4,-0.5 -1.5,-1.5l0.2,-7.7l0,0zm-3.6,3.7l0,4.4c0,0 -2.2,0.7 -4.1,0.7c-1.4,0 -2,-0.9 -2,-2.4s0.8,-2.2 2.3,-2.3l3.8,-0.4z" class="st0" id="path4901"/>
        </g>
        <g id="svg_1">
            <path id="svg_2" d="m19.4,23.8l19.9,-23.8l-39.3,0l0,19.1c0.2,0 0.5,0 0.7,0c6.8,0 13.2,1.7 18.7,4.7z" class="st1"/>
            <polygon id="svg_3" points="0,47.3 0,47.3 19.4,23.8  " class="st1"/>
            <path id="svg_4" d="m24.5,27.1c0.2,0.2 0.4,0.3 0.5,0.4c-0.1,-0.1 -0.3,-0.2 -0.5,-0.4z" class="st1"/>
            <path id="svg_5" d="m23,26c0.1,0.1 0.2,0.1 0.3,0.2c-0.1,0 -0.2,-0.1 -0.3,-0.2z" class="st1"/>
            <path id="svg_6" d="m25.8,28.2l-18.8,22.8l32.2,0c-1.7,-9.1 -6.5,-17.1 -13.4,-22.8z" class="st1"/>
            <path id="svg_7" d="m22.8,25.9c-1.4,-1 -3.4,-2.1 -3.4,-2.1c1.2,0.7 2.4,1.4 3.6,2.2c-0.1,0 -0.1,0 -0.2,-0.1z" class="st2"/>
            <path id="svg_8" d="m25.9,28.2c0,0 -0.3,-0.2 -0.8,-0.6c0.2,0.2 0.5,0.4 0.8,0.6l0,0z" class="st2"/>
            <path id="svg_9" d="m23.3,26.3c0.4,0.3 0.8,0.6 1.2,0.9c-0.3,-0.3 -0.7,-0.6 -1.2,-0.9z" class="st2"/>
            <path id="svg_10" d="m25.1,27.6c-0.2,-0.1 -0.3,-0.3 -0.5,-0.4c-0.4,-0.3 -0.8,-0.6 -1.2,-0.9c-0.1,-0.1 -0.2,-0.1 -0.3,-0.2c-1.1,-0.8 -2.3,-1.5 -3.6,-2.2l-19.5,23.4l0,3.7l7,0l18.9,-22.8c-0.3,-0.2 -0.6,-0.4 -0.8,-0.6z" class="st2"/>
            <path id="svg_11" d="m0.7,19.1c-0.2,0 -0.5,0 -0.7,0l0,28.2l19.4,-23.4c-5.5,-3.1 -11.9,-4.8 -18.7,-4.8z" class="st3"/>
        </g>
        <text xml:space="preserve" text-anchor="start" font-family="Oswald, sans-serif" font-size="12" id="svg_13" y="13.0817" x="98.02025" stroke-width="0" stroke="#000000" fill="#ffffff">Webitel</text>
    </g>
</svg>